mongolia2
none
   87.750550   49.169140
   88.135070   49.498460
   90.366820   50.261820
   92.465020   50.967540
   93.517460   50.678750
   94.304500   50.647010
   94.684210   50.129870
   95.522030   50.104050
   97.267730   49.933580
   98.065020   50.099850
   98.243230   50.385990
   97.961260   50.658600
   97.764580   51.018940
   98.032070   51.488670
   98.876950   52.195820
   100.636500   51.747760
   102.238800   51.390640
   102.165200   51.146500
   102.635400   50.499610
   103.295400   50.330980
   103.399300   50.238520
   105.350700   50.497820
   105.848400   50.449760
   106.076300   50.403060
   106.096800   50.360590
   106.296400   50.320280
   106.485300   50.327560
   106.512100   50.355980
   106.822800   50.308640
   107.970900   49.964470
   109.912700   49.278560
   112.480800   49.542140
   112.800700   49.556400
   113.197600   49.861890
   113.454400   49.978610
   114.316900   50.317410
   115.016500   50.202890
   115.302900   49.976840
   115.739600   49.890210
   116.167700   50.060980
   116.633700   49.939650
   116.751600   49.839700
   115.853600   48.507510
   115.826100   47.850030
   118.158000   48.079920
   118.567200   48.023000
   119.127500   47.711610
   119.742700   47.258730
   119.959700   46.914630
   120.020100   46.656980
   119.682300   46.549420
   118.698500   46.641620
   115.806900   45.413880
   113.538200   44.647360
   111.988300   45.050410
   111.593000   44.564070
   111.994600   43.838490
   111.970600   43.690710
   110.120800   42.533890
   104.870000   41.500350
   101.936600   42.163410
   101.284500   42.579630
   99.442740   42.480200
   96.369320   42.692530
   94.930110   44.168420
   92.142330   44.937590
   90.762170   45.137490
   90.604100   45.647550
   90.867230   46.073470
   90.895670   46.633030
   90.063610   47.725420
   88.996870   47.935490
   87.908790   48.579410
   87.702550   48.865600
   87.750550   49.169140
END
END
