none
1
   30.879340   55.554720
   30.881510   55.570850
   30.753190   55.541510
   30.639590   55.598440
   30.578090   55.696330
   30.237920   55.815320
   30.123130   55.780480
   29.914700   55.803830
   29.814330   55.732450
   29.680370   55.736900
   29.493950   55.653060
   29.311990   55.743290
   29.348510   55.920220
   29.305750   55.936350
   29.062190   55.977830
   28.862710   55.905000
   28.728570   55.916460
   28.583890   56.054500
   28.303970   56.009170
   28.119910   56.109300
   28.102970   56.186800
   28.168110   56.285740
   28.112730   56.371530
   28.129170   56.423500
   27.861740   56.716780
   27.848290   56.813430
   27.647030   56.786080
   27.609840   56.822960
   27.680450   56.967590
   27.669030   57.117640
   27.773090   57.186860
   27.806670   57.267260
   27.484890   57.388020
   27.489840   57.481410
   27.332970   57.471160
   27.266780   57.581190
   27.517240   57.872340
   27.634870   57.897480
   27.558250   58.077960
   27.443540   58.205410
   27.483620   58.386730
   27.309150   58.804120
   27.688030   59.011930
   27.880140   59.287530
   28.126850   59.367570
   27.829540   59.531540
   26.919140   59.579380
   26.390090   59.929850
   26.865070   60.166820
   27.486200   60.301330
   27.642600   60.403440
   27.644660   60.462850
   27.850710   60.651410
   28.492320   60.997970
   28.633690   61.006590
   28.795810   61.166490
   29.207480   61.314010
   29.471800   61.535790
   29.698590   61.612220
   30.619540   62.245580
   31.119310   62.489880
   31.495680   62.900090
   31.242300   63.067280
   31.184890   63.181170
   30.770990   63.354980
   30.460480   63.422660
   29.930210   63.728350
   29.970200   63.810660
   30.229010   63.871500
   30.491990   64.103540
   30.421640   64.213920
   30.005220   64.370300
   29.937390   64.529720
   29.946330   64.606700
   30.026510   64.661960
   29.992220   64.740850
   29.706820   64.748900
   29.564880   64.904440
   29.549340   65.003370
   29.591190   65.097380
   29.782820   65.173320
   29.615120   65.184090
   29.552850   65.248340
   29.569240   65.308610
   29.674850   65.369060
   29.687790   65.496070
   29.736660   65.550090
   29.679420   65.664310
   30.066950   65.744750
   29.891180   66.079740
   29.661870   66.232170
   29.435440   66.506020
   29.071250   66.752760
   28.981880   66.935780
   29.047710   67.041060
   29.888190   67.562830
   29.921330   67.637310
   29.627450   67.763650
   29.292810   68.027930
   28.619460   68.153680
   28.384120   68.549400
   28.688570   68.816500
   28.455810   68.836640
   28.367580   68.929390
   28.908180   69.099880
   29.046470   69.070430
   29.189160   69.148560
   29.285770   69.348840
   29.565390   69.371470
   29.842880   69.473440
   30.010010   69.471970
   30.112370   69.572750
   30.046040   69.623950
   30.079250   69.709960
   30.240280   69.702540
   30.540620   69.593180
   30.885670   69.601340
   30.775680   69.823790
   31.278480   70.111740
   36.210360   81.371300
   67.084470   82.545610
   72.624810   76.851170
   61.163280   70.870620
   64.990610   69.605620
   65.179220   69.351440
   65.119830   69.212180
   65.047910   69.150420
   64.882090   69.123270
   64.641240   69.000060
   64.674970   68.962570
   64.670870   68.915780
   64.709860   68.910070
   64.789040   68.942550
   64.936080   68.922010
   65.102750   68.859480
   65.346070   68.861260
   65.429690   68.830660
   65.447490   68.786890
   65.513330   68.727240
   65.513320   68.682870
   65.604240   68.636140
   65.680030   68.622920
   65.719300   68.563940
   65.709120   68.526000
   65.640690   68.451950
   65.560290   68.424770
   65.353950   68.220950
   65.359410   68.159890
   65.399230   68.121560
   65.380270   68.021610
   65.402520   67.990160
   65.435200   67.964280
   65.551470   67.982770
   65.753550   67.971900
   65.903750   68.010840
   66.101870   67.982160
   66.156680   67.958510
   66.181780   67.911660
   66.130140   67.834290
   66.254600   67.793700
   66.299270   67.730360
   66.252660   67.648370
   66.164040   67.601450
   66.098010   67.601350
   66.140820   67.492450
   66.108790   67.433810
   66.020590   67.361050
   65.798840   67.339480
   65.781070   67.299760
   65.680150   67.249390
   65.624390   67.249510
   65.449430   67.164310
   65.377230   67.166310
   65.285340   67.122390
   65.272000   67.051070
   65.163330   67.009960
   65.194010   66.931020
   65.164920   66.866080
   64.895950   66.788470
   64.602020   66.747360
   64.587390   66.700940
   64.549260   66.668850
   64.397230   66.668610
   64.339610   66.620430
   64.264390   66.596480
   64.005360   66.584830
   63.828040   66.489090
   63.643390   66.464970
   63.521980   66.411200
   63.408670   66.396320
   63.362170   66.370400
   63.322280   66.301610
   63.360000   66.252420
   63.312300   66.184360
   63.243450   66.174720
   63.142810   66.202820
   63.037590   66.135040
   62.985190   66.061910
   62.913800   66.026220
   62.950930   65.952550
   62.882850   65.906020
   62.884770   65.857790
   62.847090   65.823900
   62.513560   65.792690
   61.915310   65.638260
   61.749300   65.536260
   61.636320   65.508960
   61.392330   65.318980
   61.413090   65.243470
   61.324510   65.142740
   61.261230   65.119680
   61.143280   65.119910
   61.114470   65.050780
   61.028150   65.019540
   60.966680   64.968310
   60.835230   64.975070
   60.757420   64.884920
   60.617440   64.869590
   60.421460   64.957390
   60.378980   65.014680
   60.227460   65.028060
   60.107640   64.988780
   60.074180   64.929580
   60.023200   64.896700
   59.937680   64.887290
   59.885830   64.850410
   59.810110   64.850760
   59.756480   64.789220
   59.700510   64.760480
   59.695680   64.748490
   59.774120   64.720160
   59.798640   64.659100
   59.780150   64.622520
   59.666970   64.600710
   59.610180   64.544750
   59.699040   64.444000
   59.696730   64.352770
   59.632580   64.270320
   59.717620   64.193460
   59.855340   64.174980
   59.885200   64.081240
   59.785240   63.947000
   59.627450   63.875270
   59.520280   63.542380
   59.417830   63.394910
   59.413210   63.341010
   59.388030   63.316320
   59.413840   63.248510
   59.355750   63.163520
   59.368760   63.108850
   59.276480   63.035690
   59.487160   62.947210
   59.512870   62.883020
   59.454500   62.731570
   59.460480   62.706270
   59.521280   62.611070
   59.647330   62.595020
   59.683700   62.550200
   59.654810   62.341340
   59.561240   62.277100
   59.456590   62.129790
   59.537120   61.943630
   59.514060   61.905610
   59.386050   61.823980
   59.467200   61.755770
   59.381630   61.625630
   59.254570   61.579850
   59.170510   61.579420
   59.069480   61.493790
   58.887230   61.474600
   58.838710   61.445070
   57.126940   61.451720
   57.069940   61.426160
   56.682030   61.466610
   56.628710   61.437850
   56.581130   61.372240
   56.404340   61.376510
   56.368470   61.264150
   56.287190   61.144510
   55.865380   61.190250
   55.744460   61.048310
   55.317220   61.090270
   55.231530   60.953900
   55.087150   60.950610
   54.984410   60.812330
   53.935910   60.925760
   53.833010   60.787410
   53.657250   60.797570
   53.330510   60.840380
   53.338250   60.989930
   52.929520   61.033750
   52.821820   60.891330
   52.471310   60.918970
   52.374400   60.781980
   51.939000   60.822160
   51.853330   60.634970
   52.154250   60.591430
   52.198650   60.549700
   52.206870   60.507910
   52.383280   60.477250
   52.390740   60.395210
   52.420890   60.356070
   52.351130   60.191970
   52.076900   60.253340
   52.005920   60.236400
   51.893290   60.153290
   51.787970   60.040620
   51.587260   59.906390
   51.479480   59.868770
   51.396290   59.892670
   51.342490   59.953680
   51.177370   59.994410
   51.105070   59.988440
   51.059430   59.977290
   50.850640   59.818030
   50.403840   59.786720
   50.325360   59.761580
   50.269630   59.700270
   50.107880   59.702190
   50.130730   59.675640
   50.102200   59.632560
   49.894050   59.593560
   49.873510   59.534950
   49.918160   59.493640
   49.897940   59.400430
   49.914390   59.339760
   49.852950   59.177060
   49.727680   59.150100
   49.489700   59.182620
   49.459240   59.247970
   49.484660   59.295680
   49.480740   59.346280
   49.329130   59.363790
   49.292360   59.416420
   49.153080   59.451730
   49.108360   59.433960
   49.014800   59.440640
   49.009720   59.616360
   48.482990   59.679090
   48.424240   60.119240
   48.442530   60.202750
   48.678250   60.340170
   48.491740   60.370680
   48.488950   60.424800
   48.452770   60.450350
   48.449520   60.518410
   48.488080   60.583290
   48.386450   60.783390
   47.946500   60.835170
   47.917340   60.879120
   47.907450   60.949640
   47.882190   60.961760
   47.650430   60.984550
   47.600250   61.008140
   47.488890   60.986850
   47.248340   61.008620
   47.232420   60.969610
   47.162930   60.926730
   47.053700   60.679330
   47.081250   60.522750
   46.943260   60.480620
   46.862990   60.283150
   46.804990   60.206130
   46.732310   60.186720
   46.623900   60.212360
   46.478660   60.193590
   46.417880   60.210980
   46.396250   60.192210
   46.418930   60.159280
   46.779400   60.107380
   46.911930   60.170050
   47.070340   60.159820
   47.054230   60.014080
   46.999960   59.838740
   47.192800   59.780270
   47.188120   59.661070
   47.155870   59.569350
   46.843070   59.571610
   46.806210   59.546870
   46.703300   59.542310
   46.457040   59.561340
   46.440020   59.530110
   46.453360   59.479520
   46.405400   59.310280
   46.220750   59.302760
   46.180480   59.267900
   46.069370   59.267860
   45.996100   59.125850
   45.635490   59.144100
   45.595600   59.128480
   45.536300   59.153130
   45.382060   59.163220
   45.326540   59.134160
   45.095320   59.142290
   45.031290   59.072250
   44.422830   59.107800
   44.354690   59.083660
   44.256140   59.120610
   44.168190   59.126580
   44.149200   59.183480
   43.954550   59.158230
   43.761080   59.212840
   43.713480   59.208160
   43.623370   59.143070
   43.525620   59.130880
   43.476440   59.171550
   43.477420   59.222150
   43.456050   59.241320
   43.425930   59.238840
   43.429110   59.207700
   43.381150   59.154130
   43.319060   59.151780
   43.268980   59.185730
   43.164370   59.206060
   42.862480   59.112420
   42.779390   59.125480
   42.722770   59.172180
   42.668910   59.181050
   42.611980   59.242410
   42.605710   59.279440
   42.387730   59.257840
   42.333450   59.212750
   42.265780   59.215040
   42.164730   59.298060
   42.147800   59.357740
   42.065970   59.378620
   42.033600   59.358930
   42.022990   59.302170
   42.143440   59.263220
   42.135450   59.138490
   42.092390   59.088820
   41.915340   59.025560
   41.754260   59.059580
   41.359070   58.903930
   41.287700   58.939520
   41.319570   58.888800
   41.297740   58.809630
   41.259870   58.789070
   41.276390   58.755640
   41.259390   58.683540
   41.177970   58.609310
   41.113230   58.600300
   41.072200   58.562760
   40.972600   58.530060
   40.677860   58.542590
   40.472070   58.489700
   40.197420   58.500540
   40.055500   58.560610
   39.970410   58.690150
   39.851390   58.707640
   39.769780   58.781580
   39.701370   58.775290
   39.605980   58.840940
   39.564580   58.826020
   39.422660   58.845260
   39.373320   58.834630
   39.305230   58.872500
   39.236540   58.846200
   39.131530   58.892850
   39.069080   58.879350
   39.080110   58.837550
   38.973860   58.761130
   38.942830   58.688480
   38.737360   58.697090
   38.685980   58.678770
   38.596880   58.713070
   38.487380   58.650760
   38.396850   58.676910
   38.073230   58.678340
   37.903250   58.562490
   37.767830   58.573840
   37.727510   58.487440
   37.626730   58.434470
   37.393960   58.538630
   37.331430   58.600050
   37.253420   58.610140
   37.230870   58.662590
   37.158450   58.726120
   37.138990   58.781420
   37.073820   58.809640
   37.032410   58.786990
   36.865720   58.782980
   36.875950   58.756360
   36.840850   58.687210
   36.689030   58.645560
   36.663440   58.583390
   36.592710   58.552290
   36.557350   58.492970
   36.513970   58.467410
   36.407130   58.463550
   36.350400   58.428140
   36.264390   58.467890
   36.112510   58.450590
   35.920330   58.372230
   35.829430   58.367890
   35.587200   58.404840
   35.467040   58.359840
   35.338800   58.359830
   35.286060   58.235130
   35.131020   58.165600
   35.042740   58.146430
   34.931930   58.177950
   34.786620   58.188140
   34.759580   58.061320
   34.679300   58.025240
   34.494670   58.067660
   34.443720   58.100860
   34.164620   58.155440
   34.002730   58.143010
   33.817890   58.089830
   33.724670   58.112790
   33.661310   58.067460
   33.709720   58.046650
   33.740790   57.991410
   33.723040   57.873090
   33.612320   57.811480
   33.635970   57.704390
   33.492570   57.632800
   33.428040   57.643770
   33.379530   57.617210
   33.342600   57.534300
   33.291450   57.502110
   33.315180   57.464040
   33.311200   57.411970
   33.274940   57.372860
   33.212060   57.362750
   33.114350   57.413810
   33.055940   57.381310
   32.806490   57.407700
   32.752340   57.389540
   32.647870   57.288620
   32.437830   57.220550
   32.389260   57.177130
   32.297290   57.185990
   32.245500   57.144710
   32.120470   57.133780
   31.939150   57.034640
   31.846760   57.060750
   31.765460   57.049710
   31.736520   57.032140
   31.749550   56.998750
   31.715470   56.946180
   31.606310   56.936010
   31.402370   56.861140
   31.272450   56.900330
   31.089770   56.883690
   31.025030   56.913100
   30.995720   56.854680
   30.885320   56.759800
   30.881070   56.718120
   30.923180   56.696850
   31.042800   56.705040
   31.095010   56.687980
   31.112620   56.617540
   31.071560   56.519440
   31.239420   56.468170
   31.273950   56.428820
   31.283340   56.379130
   31.512720   56.356950
   31.558990   56.326500
   31.556810   56.261930
   31.524610   56.228770
   31.547320   56.194210
   31.552770   56.140110
   31.531990   56.109590
   31.555510   56.038990
   31.520650   55.985300
   31.444520   55.938140
   31.462780   55.823680
   31.528510   55.736490
   31.523220   55.672710
   31.445110   55.654490
   31.379180   55.682530
   31.258090   55.690760
   31.211520   55.672230
   31.109060   55.706020
   31.091150   55.660880
   30.996780   55.630610
   30.943100   55.575710
   30.879340   55.554720
END
END
