RU-BU_RU-ZAB_RU-AMU
1
   108.303201   56.692454
   108.193337   55.677597
   107.556130   54.072296
   105.249001   52.616404
   103.820779   52.038990
   100.239236   53.592518
   98.349587   52.882404
   98.261697   52.038990
   98.964822   51.686193
   101.711404   51.179357
   102.238748   50.205047
   103.798806   49.852166
   106.281716   50.148760
   108.786599   48.908074
   112.324197   49.052285
   114.543435   49.965370
   117.817361   49.282154
   119.597146   50.064206
   121.267068   52.308492
   120.849587   52.895662
   121.794412   53.238934
   124.387185   53.041226
   125.771462   52.375613
   126.870095   50.387522
   127.133767   49.482416
   128.825673   49.246300
   130.023182   48.734463
   130.726307   48.705470
   131.791981   49.246300
   131.605214   50.352478
   131.231678   50.979189
   133.736561   52.214345
   134.923085   52.402426
   135.131825   53.067633
   135.065907   53.768202
   132.011708   53.461897
   131.264637   54.078735
   133.253163   55.410313
   132.341298   55.986098
   126.562478   55.887648
   120.871560   57.397636
   119.970681   57.243406
   119.179666   58.482221
   117.443826   58.608345
   116.850564   58.159124
   116.982400   57.385795
   114.587380   57.302802
   114.125955   56.956969
   111.269509   57.350249
   109.226052   56.968948
   108.303201   56.692454
END
END
