none
2
   -180.000000   72.238170
   -180.000000   72.239260
   -178.904700   72.103540
   -175.445000   71.509500
   -168.976400   66.015910
   -168.976000   65.983780
   -169.029700   65.485110
   -173.832000   63.312490
   -180.000000   62.261340
   -180.000000   72.238170
END
1
   180.000000   82.000230
   180.000000   37.346590
   172.170200   37.346590
   156.088713   50.942614
   152.502104   56.730403
   161.740303   60.664886
   161.802435   63.283868
   162.672508   64.567485
   159.596179   65.148359
   157.079183   67.289639
   157.856034   68.218864
   161.802435   68.709335
   162.051027   70.118266
   169.011610   70.639961
   180.000000   82.000230
END
END
