RU-IRK
1
   97.514604   58.355653
   94.789995   54.162460
   97.294878   52.402446
   104.589800   50.541391
   107.534136   51.069044
   111.181597   53.278379
   111.005815   56.047524
   117.509722   56.340926
   120.190386   58.424753
   117.246050   60.973128
   110.786089   59.667763
   111.840776   61.938971
   108.764604   64.680337
   105.952104   64.072219
   105.424761   62.247487
   103.754839   61.164458
   104.589800   59.667763
   102.392534   59.645562
   100.371050   58.378702
   97.514604   58.355653
END
END
