RU-KYA-S
1
   90.922830   54.136709
   91.516091   53.317762
   90.197732   52.321924
   90.373513   51.944278
   90.878884   51.713430
   92.746560   51.658940
   93.999001   52.200887
   94.943826   53.120418
   96.591775   53.396445
   97.053201   53.670693
   96.130349   54.316536
   96.943337   54.521094
   97.338845   55.788941
   98.217751   56.328733
   98.327615   57.492225
   100.744607   57.160090
   103.337380   58.722610
   104.721658   58.332579
   105.886208   59.310779
   105.864236   60.305196
   105.029275   60.705459
   107.116677   62.319013
   107.160623   63.743641
   108.808572   63.908406
   108.720681   64.453859
   106.831033   64.736651
   85.080659   64.540783
   84.117364   63.297835
   83.433735   60.611566
   84.459178   59.447471
   87.411211   58.954245
   88.374521   55.912104
   87.737504   55.235777
   89.244594   54.520705
   90.285574   54.763461
   90.922830   54.136709
END
END
