RU-MAG
1
   146.206033   58.881953
   146.711404   59.734265
   145.129373   60.283419
   145.458962   60.748435
   146.249978   61.068927
   146.162087   61.689883
   144.162576   61.907936
   145.458962   64.501195
   151.874978   64.708504
   152.907693   65.793778
   154.248025   66.425546
   157.917458   66.337514
   158.422830   66.539526
   159.873025   66.266865
   159.565408   65.784767
   163.959939   64.661527
   162.685525   61.122030
   160.070779   60.119630
   153.786599   58.147530
   147.941873   58.470732
   146.206033   58.881953
END
END
