RU-PRI_RU-KHA_RU-YEV
1
   131.923806   55.366637
   129.968240   53.994867
   131.440408   52.935410
   134.099099   53.041226
   131.616189   52.268171
   130.056130   50.541377
   130.930403   49.456755
   130.231238   48.775419
   130.852718   47.437169
   132.779308   47.500186
   134.208713   48.095086
   134.364084   47.699243
   132.841456   45.347901
   131.676180   45.467887
   130.681811   44.843379
   130.790578   43.110550
   130.192403   42.729394
   130.557523   42.092742
   131.450901   41.884873
   134.946729   42.127320
   140.516741   47.803706
   141.459950   51.303152
   141.600460   52.160607
   141.480048   53.742374
   138.994122   55.483058
   147.461787   58.874016
   146.778158   61.991563
   140.283686   62.676863
   136.756784   59.910239
   132.204439   59.328787
   130.044794   57.573272
   130.479830   55.465451
   131.923806   55.366637
END
END
