RU-SA-E
1
   131.352495   72.738016
   129.418923   55.316656
   131.726052   55.516205
   133.154275   58.961351
   135.637185   58.916003
   139.086892   59.589986
   140.800759   62.175770
   144.470193   61.386208
   146.162087   62.461577
   146.206033   63.626754
   152.418079   64.137096
   154.748631   65.793352
   158.135700   65.755100
   159.254365   66.059532
   158.881476   67.846904
   162.983248   68.184246
   164.785542   71.258613
   162.268515   78.294706
   131.256634   76.936517
   131.352495   72.738016
END
END
