RU-SA-W
1
   131.256634   76.936517
   131.352495   72.738016
   129.418923   55.316656
   127.485330   55.329157
   121.354958   56.462503
   119.399392   56.644159
   118.256814   59.108320
   115.657503   60.135377
   113.513395   58.906135
   111.928619   58.664576
   111.742175   58.938216
   109.598067   58.713022
   108.510476   59.479048
   109.660215   60.990543
   108.510476   63.311795
   107.609330   63.534234
   107.733626   63.987589
   105.061259   64.312754
   104.633745   67.305993
   105.248979   69.824486
   111.445269   71.413191
   109.511675   73.390793
   110.873979   74.413986
   114.389604   75.140789
   131.256634   76.936517
END
END
