ural
1
   51.893236   51.235044
   53.017177   50.964490
   54.388450   50.343229
   55.265058   50.454417
   55.976887   50.346955
   56.763645   50.692350
   58.262232   50.668611
   59.423637   50.179306
   61.596589   50.644860
   62.046165   51.457352
   61.072083   51.933402
   61.559124   52.598307
   62.420812   52.847908
   62.027432   53.665930
   63.722718   54.025092
   63.497930   54.826043
   62.645609   54.831438
   62.654975   55.260717
   62.992157   55.621995
   62.336525   56.209856
   62.954693   56.386554
   64.275323   56.308699
   64.649969   56.665515
   65.352432   56.655220
   65.427361   56.932208
   65.193207   57.580633
   66.476372   57.965224
   66.186021   58.712462
   65.811374   58.954822
   65.333700   59.444000
   64.340886   59.505844
   63.853845   60.248481
   63.226311   60.659536
   62.786102   61.363078
   61.062726   61.852965
   59.891955   62.064313
   59.133295   61.985229
   58.730550   61.653493
   56.295346   61.671276
   54.749928   61.074472
   52.745567   61.246151
   51.565430   60.883633
   51.490501   60.480051
   52.239794   60.090072
   53.260707   60.001216
   52.839229   59.362956
   53.035919   59.065739
   53.476129   58.969309
   53.579156   58.133743
   53.803945   57.775938
   53.981902   57.125901
   53.635353   56.870832
   53.738381   56.541786
   54.122394   56.339860
   53.391833   55.748716
   52.689370   55.282060
   52.839229   54.696344
   52.333456   54.734216
   51.865147   53.760158
   51.087755   52.621051
   50.862967   52.203999
   50.151138   51.713410
   50.909798   51.387260
   51.893236   51.235044
END
END
