ru_ural_polar
ural
   49.454301   58.978267
   48.164729   59.565724
   47.869525   60.930200
   44.637826   64.184492
   48.087044   65.043671
   42.602477   66.608326
   40.334073   69.161640
   49.811652   71.123356
   48.599749   73.468229
   53.385150   76.155918
   66.094427   77.567224
   71.563456   77.520306
   79.189409   73.689623
   85.209917   67.974650
   88.198198   61.980288
   86.484331   59.999008
   77.980935   60.348706
   75.190408   57.856455
   71.564919   57.621887
   68.642556   58.205462
   65.654275   57.868143
   63.872650   56.094540
   55.700180   55.951270
   49.454301   58.978267
END
END
