zap-sib
1
   96.833452   54.162460
   99.843706   53.278379
   99.184526   51.645321
   98.437456   51.234435
   98.920854   50.120606
   97.734331   49.468153
   94.350542   49.696090
   93.339800   50.345488
   91.713823   50.345488
   87.890581   48.806892
   86.660112   49.009080
   83.056597   50.373524
   79.497026   50.485502
   76.025347   53.800677
   72.861284   52.988364
   69.389604   54.851341
   69.873003   58.745430
   71.191362   58.972690
   72.685503   58.309512
   76.201128   59.999008
   76.508745   61.143256
   84.594683   61.333561
   85.561479   60.218013
   87.582964   59.966032
   94.020974   59.578862
   98.195779   57.563007
   96.833452   54.162460
END
END
